<svg width="64" height="64" viewBox="0 0 64 64" fill="none" xmlns="http://www.w3.org/2000/svg">
<path d="M56.328 16.795L61.218 9.86495C61.902 8.89495 61.988 7.63895 61.44 6.58495C60.896 5.53295 59.818 4.87695 58.632 4.87695H31.582C29.836 4.87695 28.416 6.29495 28.416 8.04095V45.719C28.416 46.713 29.222 47.519 30.216 47.519C31.21 47.519 32.016 46.713 32.016 45.719V28.713H58.632C59.82 28.713 60.896 28.059 61.44 27.005C61.986 25.951 61.9 24.695 61.218 23.723L56.328 16.795ZM32.018 25.113V8.47695H57.794L53.212 14.969C52.438 16.061 52.438 17.529 53.21 18.621L57.794 25.115H32.018V25.113Z" fill="#272727"/>
<path d="M38.4422 35.9194C37.4222 35.7814 36.5582 36.4994 36.4342 37.4854C36.3122 38.4714 37.0142 39.3694 38.0002 39.4914C48.8082 40.8234 54.6382 44.5014 54.6382 47.2854C54.6382 51.1754 44.1962 55.5254 30.2202 55.5254C16.2442 55.5254 5.8002 51.1754 5.8002 47.2854C5.8002 44.5014 11.6322 40.8234 22.4402 39.4914C23.4262 39.3694 24.1282 38.4714 24.0062 37.4854C23.8822 36.4994 23.0222 35.7834 21.9982 35.9194C9.97219 37.4014 2.2002 41.8614 2.2002 47.2854C2.2002 54.9754 16.6382 59.1254 30.2222 59.1254C43.8042 59.1254 58.2422 54.9754 58.2422 47.2854C58.2402 41.8634 50.4682 37.4014 38.4422 35.9194Z" fill="#F98A17"/>
</svg>
