<svg width="54" height="54" viewBox="0 0 54 54" fill="none" xmlns="http://www.w3.org/2000/svg">
<path fill-rule="evenodd" clip-rule="evenodd" d="M40.8586 25.3125C40.7645 21.8236 40.2985 18.3546 39.4684 14.9645C41.6411 14.4128 43.7538 13.6471 45.7754 12.6786C48.5739 16.3303 50.2389 20.7232 50.5639 25.3125H40.8586ZM39.4686 39.0367C40.2985 35.6462 40.7645 32.1768 40.8586 28.6875H50.5637C50.2389 33.2767 48.574 37.6696 45.7754 41.3213C43.754 40.3527 41.6413 39.5875 39.4684 39.0368L39.4686 39.0367ZM37.1378 45.6173C37.6587 44.5282 38.1165 43.41 38.5089 42.2683C40.1946 42.6936 41.8425 43.257 43.4357 43.953C41.0259 46.2923 38.1462 48.0924 34.9877 49.234C35.8152 48.0979 36.5349 46.8871 37.1373 45.6173H37.1378ZM19.902 44.152C21.8848 48.265 24.472 50.625 27 50.625C29.528 50.625 32.1152 48.2651 34.098 44.1521C34.5026 43.307 34.8644 42.4422 35.1823 41.5609C29.765 40.6598 24.2361 40.6598 18.8188 41.5609C19.1363 42.4422 19.4978 43.3069 19.902 44.152ZM15.4905 42.2683C15.8832 43.4101 16.3413 44.5283 16.8626 45.6173C17.4647 46.8873 18.1844 48.0981 19.0121 49.234C15.8537 48.0922 12.974 46.2921 10.5641 43.953C12.157 43.2572 13.8046 42.6937 15.4901 42.2683H15.4905ZM13.1424 28.6875C13.2359 32.1769 13.7016 35.6463 14.5317 39.0368C12.3588 39.5874 10.2461 40.3526 8.22466 41.3213C5.4261 37.6696 3.76116 33.2767 3.43638 28.6875H13.1424ZM14.5317 14.9641C13.7015 18.3543 13.2357 21.8234 13.1424 25.3125H3.43638C3.76131 20.7233 5.42623 16.3304 8.22466 12.6786C10.2463 13.6472 12.359 14.4129 14.5317 14.9645V14.9641ZM16.8626 8.38287C16.3413 9.47169 15.8832 10.5896 15.4905 11.7312C13.8049 11.3061 12.1573 10.7426 10.5645 10.0464C12.9745 7.70758 15.8542 5.90774 19.0125 4.76624C18.1842 5.90179 17.4642 7.11257 16.8621 8.38266L16.8626 8.38287ZM37.4825 28.6875C37.3711 32.0931 36.9236 35.357 36.1738 38.312C30.1048 37.2422 23.8955 37.2422 17.8265 38.312C17.0761 35.357 16.6294 32.0931 16.5187 28.6875H37.4825ZM16.5185 25.3125C16.6294 21.9068 17.0761 18.6429 17.8263 15.6878C20.8545 16.2257 23.9244 16.4941 27 16.4897C30.0757 16.4939 33.1457 16.2254 36.174 15.6873C36.9235 18.6423 37.3711 21.9059 37.4825 25.3125H16.5185ZM34.098 9.84878C32.1152 5.73423 29.5284 3.375 27 3.375C24.4716 3.375 21.8848 5.73476 19.902 9.84931C19.4977 10.6937 19.1363 11.5581 18.8192 12.439C21.5224 12.8934 24.2589 13.1195 27 13.115C29.7416 13.1193 32.4788 12.893 35.1825 12.4385C34.8648 11.5575 34.5029 10.6932 34.098 9.84878ZM37.1383 8.38276C36.5362 7.11278 35.8165 5.90195 34.9886 4.76613C38.1471 5.90747 41.0268 7.70733 43.4367 10.0463C41.8436 10.7426 40.1957 11.3061 38.5098 11.7311C38.1174 10.5896 37.6596 9.47163 37.1387 8.38276H37.1383ZM27 0C12.1116 0 0 12.1114 0 27C0 41.8886 12.1116 54 27 54C41.8884 54 54 41.8879 54 27C54 12.1121 41.888 0 27 0Z" fill="white"/>
</svg>
