<svg width="61" height="61" viewBox="0 0 61 61" fill="none" xmlns="http://www.w3.org/2000/svg">
<path d="M55.5945 6.71643C54.9013 6.07235 54.0817 5.57953 53.1878 5.2693C52.2938 4.95907 51.3451 4.8382 50.4019 4.91439C50.3485 4.91439 50.1478 4.91439 50.0868 4.91439C43.4475 5.73821 37.0412 7.88688 31.2479 11.233L30.8438 11.4871C30.6129 11.5643 30.3626 11.5598 30.1347 11.4744L29.5272 11.1084C23.7419 7.80007 17.3513 5.68686 10.7341 4.89405C9.76959 4.80269 8.79661 4.91532 7.87844 5.22461C6.96026 5.5339 6.11745 6.03294 5.40477 6.68928C4.69209 7.34563 4.1255 8.14459 3.74182 9.03425C3.35814 9.92391 3.16595 10.8843 3.17776 11.8531V42.5565C3.21286 44.24 3.84084 45.8572 4.9511 47.1232C6.06137 48.3892 7.58272 49.2229 9.24726 49.4774L9.99197 49.5791C16.3739 50.6519 22.5566 52.6846 28.3301 55.6079C28.9954 55.9622 29.7393 56.1432 30.493 56.1341C31.2345 56.1447 31.9663 55.9644 32.6179 55.6105C38.3649 52.6816 44.5259 50.6485 50.8874 49.5816L51.7312 49.48C53.4015 49.2314 54.9301 48.4 56.0464 47.133C57.1628 45.8659 57.795 44.2448 57.8312 42.5565V11.876C57.8401 10.9074 57.6456 9.94766 57.2603 9.05891C56.875 8.17015 56.3076 7.37213 55.5945 6.71643ZM10.5028 45.8022L9.74034 45.698C8.99262 45.566 8.31239 45.1826 7.81227 44.6113C7.31215 44.04 7.02214 43.3151 6.99026 42.5565V11.8531C6.98277 11.411 7.06802 10.9723 7.2405 10.5651C7.41298 10.158 7.66887 9.79155 7.99168 9.48939C8.57419 8.9608 9.33505 8.67207 10.1216 8.68114H10.4215C16.4458 9.42775 22.2627 11.3592 27.5371 14.3643L28.1471 14.7278C28.2923 14.8 28.4417 14.8636 28.5944 14.9184V51.4752C22.8565 48.7536 16.7675 46.8443 10.5028 45.8022ZM54.0111 42.5565C53.9797 43.3146 53.6901 44.0391 53.1904 44.61C52.6907 45.181 52.0108 45.5639 51.2635 45.6954L50.4045 45.7996C44.1721 46.8358 38.1146 48.7358 32.4069 51.4447V14.926C32.5685 14.869 32.7264 14.8019 32.8797 14.7252L33.2965 14.4583C38.5199 11.4612 44.2789 9.5142 50.2494 8.72689H50.562C51.0015 8.67753 51.4465 8.72267 51.8671 8.8593C52.2877 8.99593 52.6743 9.22088 53.0009 9.51908C53.3275 9.81727 53.5866 10.1818 53.7608 10.5883C53.935 10.9948 54.0204 11.4339 54.0111 11.876V42.5565Z" fill="black"/>
<path d="M12.0728 21.5879C12.0728 21.0823 12.2736 20.5975 12.6311 20.24C12.9886 19.8825 13.4734 19.6816 13.979 19.6816H19.6978C20.2033 19.6816 20.6882 19.8825 21.0457 20.24C21.4032 20.5975 21.604 21.0823 21.604 21.5879C21.604 22.0935 21.4032 22.5783 21.0457 22.9358C20.6882 23.2933 20.2033 23.4941 19.6978 23.4941H13.979C13.4734 23.4941 12.9886 23.2933 12.6311 22.9358C12.2736 22.5783 12.0728 22.0935 12.0728 21.5879ZM21.604 27.3066H13.979C13.4734 27.3066 12.9886 27.5075 12.6311 27.865C12.2736 28.2225 12.0728 28.7073 12.0728 29.2129C12.0728 29.7185 12.2736 30.2033 12.6311 30.5608C12.9886 30.9183 13.4734 31.1191 13.979 31.1191H21.604C22.1096 31.1191 22.5944 30.9183 22.9519 30.5608C23.3094 30.2033 23.5103 29.7185 23.5103 29.2129C23.5103 28.7073 23.3094 28.2225 22.9519 27.865C22.5944 27.5075 22.1096 27.3066 21.604 27.3066Z" fill="url(#paint0_linear_101_1619)"/>
<defs>
<linearGradient id="paint0_linear_101_1619" x1="24.9713" y1="18.849" x2="10.4147" y2="33.1568" gradientUnits="userSpaceOnUse">
<stop stop-color="#FF9900"/>
<stop offset="1" stop-color="#F06445"/>
</linearGradient>
</defs>
</svg>
