<svg width="127" height="139" viewBox="0 0 127 139" fill="none" xmlns="http://www.w3.org/2000/svg">
<path fill-rule="evenodd" clip-rule="evenodd" d="M69.1867 17.0597H95.7241C100.435 17.0597 104.254 20.8787 104.254 25.5896C104.254 30.3005 100.435 34.1195 95.7241 34.1195H92.335C92.2011 34.118 92.0671 34.1172 91.9329 34.1172H69.1865C49.8194 34.1172 34.1193 49.8174 34.1193 69.1845C34.1193 70.2582 34.1675 71.3206 34.262 72.3697C35.8703 90.2452 50.8926 104.254 69.1867 104.254H95.7241C100.435 104.254 104.254 108.073 104.254 112.784C104.254 117.495 100.435 121.314 95.7241 121.314H69.1867C40.3978 121.314 17.0597 97.9756 17.0597 69.1867C17.0597 40.3978 40.3978 17.0597 69.1867 17.0597ZM114.822 95.7517C118.86 100.276 121.314 106.243 121.314 112.784C121.314 126.917 109.857 138.373 95.7241 138.373H69.1867C30.976 138.373 0 107.397 0 69.1867C0 30.976 30.976 0 69.1867 0H95.7241C109.857 0 121.314 11.4569 121.314 25.5896C121.314 32.129 118.861 38.0955 114.825 42.6192C122.281 49.0498 127 58.566 127 69.1845C127 79.804 122.28 89.321 114.822 95.7517ZM51.2722 71.0279C52.1954 80.1072 59.8636 87.192 69.1865 87.192H91.9328C101.878 87.192 109.94 79.1297 109.94 69.1845C109.94 59.3354 102.033 51.3331 92.221 51.1792H69.1867C59.2415 51.1792 51.1792 59.2414 51.1792 69.1867C51.1792 69.6723 51.1984 70.1534 51.2362 70.6293C51.2467 70.7626 51.2587 70.8955 51.2722 71.0279ZM75.821 69.1888C75.821 72.8528 72.8507 75.8231 69.1867 75.8231C65.5227 75.8231 62.5524 72.8528 62.5524 69.1888C62.5524 65.5247 65.5227 62.5544 69.1867 62.5544C72.8507 62.5544 75.821 65.5247 75.821 69.1888ZM91.9336 75.8231C95.5976 75.8231 98.5679 72.8528 98.5679 69.1888C98.5679 65.5247 95.5976 62.5544 91.9336 62.5544C88.2695 62.5544 85.2992 65.5247 85.2992 69.1888C85.2992 72.8528 88.2695 75.8231 91.9336 75.8231Z" fill="url(#paint0_linear_83_879)"/>
<defs>
<linearGradient id="paint0_linear_83_879" x1="143.223" y1="-10.0731" x2="-31.9818" y2="147.982" gradientUnits="userSpaceOnUse">
<stop stop-color="white"/>
<stop offset="1" stop-color="#F2F2F2"/>
</linearGradient>
</defs>
</svg>
